<?xml version="1.0" encoding="UTF-8"?>
<svg xmlns="http://www.w3.org/2000/svg" xmlns:xlink="http://www.w3.org/1999/xlink" width="287.448pt" height="146.889pt" viewBox="0 0 287.448 146.889">
<defs>
<g>
<g id="glyph-0-0">
<path d="M 2 -3.53125 L 3.34375 -3.53125 L 3.34375 -3.96875 L 2 -3.96875 L 2 -5.6875 L 1.546875 -5.6875 C 1.53125 -4.84375 1.109375 -3.921875 0.203125 -3.890625 L 0.203125 -3.53125 L 0.953125 -3.53125 L 0.953125 -1.09375 C 0.953125 -0.078125 1.828125 0.046875 2.390625 0.046875 C 3.09375 0.046875 3.515625 -0.453125 3.515625 -1.09375 L 3.515625 -1.578125 L 3.0625 -1.578125 L 3.0625 -1.125 C 3.0625 -0.5 2.734375 -0.328125 2.515625 -0.328125 C 2 -0.328125 2 -0.875 2 -1.078125 Z M 2 -3.53125 "/>
</g>
<g id="glyph-0-1">
<path d="M 2.15625 -5.515625 C 2.15625 -5.984375 1.765625 -6.21875 1.453125 -6.21875 C 1.03125 -6.21875 0.75 -5.875 0.75 -5.53125 C 0.75 -5.140625 1.046875 -4.8125 1.453125 -4.8125 C 1.796875 -4.8125 2.15625 -5.078125 2.15625 -5.515625 Z M 0.5 -3.953125 L 0.5 -3.515625 C 1.015625 -3.515625 1.078125 -3.515625 1.078125 -3.171875 L 1.078125 -0.4375 L 0.46875 -0.4375 L 0.46875 0 C 1.0625 -0.015625 1.1875 -0.03125 1.5625 -0.03125 C 2 -0.03125 2.109375 -0.015625 2.609375 0 L 2.609375 -0.4375 L 2.0625 -0.4375 L 2.0625 -4.03125 Z M 0.5 -3.953125 "/>
</g>
<g id="glyph-0-2">
<path d="M 7.984375 -2.734375 C 7.984375 -3.78125 7.34375 -4.03125 6.546875 -4.03125 C 5.625 -4.03125 5.171875 -3.46875 5 -3.1875 C 4.796875 -4 4.015625 -4.03125 3.609375 -4.03125 C 2.5 -4.03125 2.0625 -3.21875 2 -3.09375 L 2 -4.03125 L 0.453125 -3.953125 L 0.453125 -3.515625 C 0.984375 -3.515625 1.0625 -3.515625 1.0625 -3.171875 L 1.0625 -0.4375 L 0.453125 -0.4375 L 0.453125 0 C 1.109375 -0.03125 1.21875 -0.03125 1.578125 -0.03125 C 1.9375 -0.03125 2.03125 -0.03125 2.71875 0 L 2.71875 -0.4375 L 2.109375 -0.4375 L 2.109375 -2.28125 C 2.109375 -3.265625 2.921875 -3.671875 3.46875 -3.671875 C 3.8125 -3.671875 4 -3.484375 4 -2.8125 L 4 -0.4375 L 3.390625 -0.4375 L 3.390625 0 C 4.046875 -0.03125 4.15625 -0.03125 4.515625 -0.03125 C 4.875 -0.03125 4.96875 -0.03125 5.65625 0 L 5.65625 -0.4375 L 5.046875 -0.4375 L 5.046875 -2.28125 C 5.046875 -3.265625 5.859375 -3.671875 6.40625 -3.671875 C 6.734375 -3.671875 6.9375 -3.484375 6.9375 -2.8125 L 6.9375 -0.4375 L 6.328125 -0.4375 L 6.328125 0 C 6.984375 -0.03125 7.09375 -0.03125 7.453125 -0.03125 C 7.8125 -0.03125 7.90625 -0.03125 8.59375 0 L 8.59375 -0.4375 L 7.984375 -0.4375 Z M 7.984375 -2.734375 "/>
</g>
<g id="glyph-0-3">
<path d="M 4.265625 -1.921875 C 4.453125 -1.921875 4.5625 -1.921875 4.5625 -2.171875 C 4.5625 -2.375 4.546875 -3.15625 3.953125 -3.640625 C 3.546875 -3.96875 3.015625 -4.0625 2.578125 -4.0625 C 1.046875 -4.0625 0.296875 -3.09375 0.296875 -2.015625 C 0.296875 -0.84375 1.1875 0.046875 2.703125 0.046875 C 4.1875 0.046875 4.5625 -0.890625 4.5625 -1.03125 C 4.5625 -1.21875 4.375 -1.21875 4.328125 -1.21875 C 4.15625 -1.21875 4.140625 -1.15625 4.09375 -1.03125 C 3.890625 -0.578125 3.34375 -0.328125 2.78125 -0.328125 C 1.5 -0.328125 1.484375 -1.484375 1.484375 -1.921875 Z M 1.484375 -2.25 C 1.5 -2.65625 1.546875 -3.703125 2.578125 -3.703125 C 3.625 -3.703125 3.65625 -2.609375 3.6875 -2.25 Z M 1.484375 -2.25 "/>
</g>
<g id="glyph-1-0">
<path d="M 1.90625 -3.578125 L 2.75 -3.578125 C 2.921875 -3.578125 3.03125 -3.578125 3.03125 -3.75 C 3.03125 -3.859375 2.9375 -3.859375 2.78125 -3.859375 L 1.984375 -3.859375 L 2.34375 -5.34375 C 2.34375 -5.484375 2.234375 -5.609375 2.0625 -5.609375 C 1.78125 -5.609375 1.703125 -5.34375 1.6875 -5.25 L 1.328125 -3.859375 L 0.5 -3.859375 C 0.328125 -3.859375 0.21875 -3.859375 0.21875 -3.703125 C 0.21875 -3.578125 0.3125 -3.578125 0.46875 -3.578125 L 1.265625 -3.578125 L 0.65625 -1.140625 C 0.59375 -0.875 0.59375 -0.859375 0.59375 -0.734375 C 0.59375 -0.203125 1 0.09375 1.453125 0.09375 C 2.390625 0.09375 2.921875 -1.1875 2.921875 -1.28125 C 2.921875 -1.328125 2.890625 -1.390625 2.796875 -1.390625 C 2.71875 -1.390625 2.703125 -1.359375 2.640625 -1.203125 C 2.359375 -0.5625 1.921875 -0.125 1.484375 -0.125 C 1.296875 -0.125 1.1875 -0.234375 1.1875 -0.53125 C 1.1875 -0.734375 1.21875 -0.84375 1.25 -0.96875 Z M 1.90625 -3.578125 "/>
</g>
<g id="glyph-2-0">
<path d="M 3.71875 -2.53125 C 3.71875 -3.0625 3.390625 -3.078125 3.359375 -3.078125 C 3.1875 -3.078125 2.984375 -2.890625 2.984375 -2.703125 C 2.984375 -2.59375 3.0625 -2.53125 3.109375 -2.484375 C 3.21875 -2.390625 3.359375 -2.21875 3.359375 -1.9375 C 3.359375 -1.625 2.90625 -0.125 2.078125 -0.125 C 1.515625 -0.125 1.515625 -0.625 1.515625 -0.75 C 1.515625 -1.0625 1.640625 -1.453125 1.890625 -2.09375 C 1.953125 -2.25 2 -2.34375 2 -2.46875 C 2 -2.828125 1.6875 -3.0625 1.328125 -3.0625 C 0.640625 -3.0625 0.328125 -2.109375 0.328125 -2 C 0.328125 -1.90625 0.421875 -1.90625 0.4375 -1.90625 C 0.546875 -1.90625 0.546875 -1.953125 0.5625 -2.015625 C 0.734375 -2.59375 1.03125 -2.875 1.3125 -2.875 C 1.4375 -2.875 1.484375 -2.796875 1.484375 -2.625 C 1.484375 -2.46875 1.4375 -2.328125 1.359375 -2.15625 C 1.0625 -1.390625 0.984375 -1.09375 0.984375 -0.84375 C 0.984375 -0.15625 1.53125 0.0625 2.0625 0.0625 C 3.21875 0.0625 3.71875 -1.953125 3.71875 -2.53125 Z M 3.71875 -2.53125 "/>
</g>
<g id="glyph-2-1">
<path d="M 1.734375 -0.734375 C 1.65625 -0.5 1.4375 -0.125 1.078125 -0.125 C 1.0625 -0.125 0.84375 -0.125 0.703125 -0.21875 C 0.984375 -0.3125 1.015625 -0.5625 1.015625 -0.609375 C 1.015625 -0.765625 0.890625 -0.859375 0.734375 -0.859375 C 0.53125 -0.859375 0.328125 -0.703125 0.328125 -0.4375 C 0.328125 -0.09375 0.71875 0.0625 1.0625 0.0625 C 1.390625 0.0625 1.671875 -0.125 1.84375 -0.421875 C 2.015625 -0.0625 2.390625 0.0625 2.671875 0.0625 C 3.46875 0.0625 3.890625 -0.796875 3.890625 -1 C 3.890625 -1.078125 3.796875 -1.078125 3.78125 -1.078125 C 3.6875 -1.078125 3.671875 -1.046875 3.65625 -0.96875 C 3.5 -0.484375 3.09375 -0.125 2.703125 -0.125 C 2.421875 -0.125 2.28125 -0.3125 2.28125 -0.578125 C 2.28125 -0.765625 2.4375 -1.390625 2.640625 -2.15625 C 2.78125 -2.703125 3.09375 -2.875 3.3125 -2.875 C 3.328125 -2.875 3.546875 -2.875 3.6875 -2.78125 C 3.46875 -2.71875 3.390625 -2.515625 3.390625 -2.390625 C 3.390625 -2.234375 3.5 -2.140625 3.671875 -2.140625 C 3.828125 -2.140625 4.046875 -2.265625 4.046875 -2.5625 C 4.046875 -2.953125 3.609375 -3.0625 3.328125 -3.0625 C 2.984375 -3.0625 2.703125 -2.84375 2.546875 -2.578125 C 2.421875 -2.859375 2.109375 -3.0625 1.71875 -3.0625 C 0.9375 -3.0625 0.5 -2.21875 0.5 -2 C 0.5 -1.90625 0.59375 -1.90625 0.609375 -1.90625 C 0.703125 -1.90625 0.703125 -1.9375 0.75 -2.03125 C 0.921875 -2.578125 1.359375 -2.875 1.703125 -2.875 C 1.921875 -2.875 2.109375 -2.75 2.109375 -2.40625 C 2.109375 -2.28125 2.03125 -1.921875 1.96875 -1.6875 Z M 1.734375 -0.734375 "/>
</g>
<g id="glyph-3-0">
<path d="M 1.984375 -3.15625 C 1.984375 -3.3125 1.96875 -3.3125 1.796875 -3.3125 C 1.453125 -2.984375 0.890625 -2.984375 0.796875 -2.984375 L 0.703125 -2.984375 L 0.703125 -2.765625 L 0.796875 -2.765625 C 0.90625 -2.765625 1.234375 -2.78125 1.515625 -2.90625 L 1.515625 -0.421875 C 1.515625 -0.265625 1.515625 -0.21875 1 -0.21875 L 0.75 -0.21875 L 0.75 0 C 1.015625 -0.015625 1.453125 -0.015625 1.75 -0.015625 C 2.03125 -0.015625 2.484375 -0.015625 2.75 0 L 2.75 -0.21875 L 2.5 -0.21875 C 1.984375 -0.21875 1.984375 -0.265625 1.984375 -0.421875 Z M 1.984375 -3.15625 "/>
</g>
<g id="glyph-3-1">
<path d="M 2.921875 -0.953125 L 2.71875 -0.953125 C 2.703125 -0.859375 2.65625 -0.5625 2.578125 -0.5 C 2.53125 -0.484375 2.109375 -0.484375 2.046875 -0.484375 L 1.0625 -0.484375 C 1.390625 -0.71875 1.765625 -1 2.0625 -1.203125 C 2.515625 -1.5 2.921875 -1.796875 2.921875 -2.328125 C 2.921875 -2.953125 2.328125 -3.3125 1.609375 -3.3125 C 0.9375 -3.3125 0.453125 -2.921875 0.453125 -2.4375 C 0.453125 -2.171875 0.671875 -2.125 0.734375 -2.125 C 0.875 -2.125 1.03125 -2.21875 1.03125 -2.421875 C 1.03125 -2.609375 0.90625 -2.703125 0.75 -2.71875 C 0.890625 -2.9375 1.171875 -3.09375 1.515625 -3.09375 C 2 -3.09375 2.390625 -2.796875 2.390625 -2.3125 C 2.390625 -1.890625 2.109375 -1.578125 1.71875 -1.25 L 0.515625 -0.234375 C 0.46875 -0.1875 0.453125 -0.1875 0.453125 -0.15625 L 0.453125 0 L 2.765625 0 Z M 2.921875 -0.953125 "/>
</g>
<g id="glyph-3-2">
<path d="M 1.640625 -1.640625 C 2.09375 -1.640625 2.40625 -1.359375 2.40625 -0.875 C 2.40625 -0.359375 2.09375 -0.09375 1.640625 -0.09375 C 1.59375 -0.09375 1 -0.09375 0.75 -0.359375 C 0.953125 -0.375 1.015625 -0.53125 1.015625 -0.65625 C 1.015625 -0.84375 0.875 -0.953125 0.703125 -0.953125 C 0.546875 -0.953125 0.390625 -0.859375 0.390625 -0.640625 C 0.390625 -0.125 0.984375 0.109375 1.65625 0.109375 C 2.46875 0.109375 2.984375 -0.375 2.984375 -0.859375 C 2.984375 -1.265625 2.625 -1.625 2.046875 -1.75 C 2.640625 -1.9375 2.8125 -2.328125 2.8125 -2.59375 C 2.8125 -3 2.296875 -3.3125 1.671875 -3.3125 C 1.0625 -3.3125 0.578125 -3.046875 0.578125 -2.609375 C 0.578125 -2.375 0.765625 -2.3125 0.859375 -2.3125 C 1 -2.3125 1.140625 -2.421875 1.140625 -2.59375 C 1.140625 -2.703125 1.078125 -2.84375 0.90625 -2.875 C 1.109375 -3.109375 1.5625 -3.125 1.65625 -3.125 C 2.015625 -3.125 2.28125 -2.9375 2.28125 -2.59375 C 2.28125 -2.3125 2.09375 -1.859375 1.5625 -1.828125 C 1.4375 -1.828125 1.40625 -1.8125 1.28125 -1.8125 C 1.234375 -1.8125 1.171875 -1.796875 1.171875 -1.734375 C 1.171875 -1.640625 1.21875 -1.640625 1.3125 -1.640625 Z M 1.640625 -1.640625 "/>
</g>
<g id="glyph-4-0">
<path d="M 5.484375 -6.09375 L 0.34375 -6.09375 L 0.34375 -5.8125 L 0.546875 -5.8125 C 1.234375 -5.8125 1.25 -5.71875 1.25 -5.375 L 1.25 -0.703125 C 1.25 -0.375 1.234375 -0.28125 0.546875 -0.28125 L 0.34375 -0.28125 L 0.34375 0 L 5.609375 0 L 5.984375 -2.3125 L 5.734375 -2.3125 C 5.515625 -0.921875 5.28125 -0.28125 3.75 -0.28125 L 2.5 -0.28125 C 2.078125 -0.28125 2.0625 -0.34375 2.0625 -0.640625 L 2.0625 -3.03125 L 2.890625 -3.03125 C 3.765625 -3.03125 3.875 -2.75 3.875 -1.984375 L 4.125 -1.984375 L 4.125 -4.34375 L 3.875 -4.34375 C 3.875 -3.578125 3.765625 -3.296875 2.890625 -3.296875 L 2.0625 -3.296875 L 2.0625 -5.4375 C 2.0625 -5.75 2.078125 -5.8125 2.5 -5.8125 L 3.703125 -5.8125 C 5.09375 -5.8125 5.34375 -5.328125 5.484375 -4.078125 L 5.734375 -4.078125 Z M 5.484375 -6.09375 "/>
</g>
<g id="glyph-4-1">
<path d="M 6.125 -6.078125 C 6.125 -6.234375 6.125 -6.3125 6.015625 -6.3125 C 5.953125 -6.3125 5.921875 -6.28125 5.875 -6.203125 L 5.421875 -5.53125 C 5.125 -5.8125 4.625 -6.3125 3.71875 -6.3125 C 1.984375 -6.3125 0.515625 -4.875 0.515625 -3.0625 C 0.515625 -1.234375 1.96875 0.203125 3.71875 0.203125 C 4.5625 0.203125 5.203125 -0.125 5.46875 -0.5625 C 5.609375 -0.328125 5.9375 -0.015625 6.03125 -0.015625 C 6.125 -0.015625 6.125 -0.09375 6.125 -0.234375 L 6.125 -1.765625 C 6.125 -2.125 6.15625 -2.171875 6.765625 -2.171875 L 6.765625 -2.453125 C 6.171875 -2.421875 6.078125 -2.421875 5.609375 -2.421875 C 5.25 -2.421875 4.484375 -2.421875 4.171875 -2.453125 L 4.171875 -2.171875 L 4.453125 -2.171875 C 5.296875 -2.171875 5.3125 -2.0625 5.3125 -1.734375 L 5.3125 -1.171875 C 5.3125 -0.078125 3.953125 -0.078125 3.84375 -0.078125 C 3.109375 -0.078125 1.421875 -0.515625 1.421875 -3.0625 C 1.421875 -5.5625 3.046875 -6.03125 3.796875 -6.03125 C 4.6875 -6.03125 5.625 -5.359375 5.84375 -3.90625 C 5.859375 -3.796875 5.859375 -3.75 5.984375 -3.75 C 6.125 -3.75 6.125 -3.796875 6.125 -3.984375 Z M 6.125 -6.078125 "/>
</g>
<g id="glyph-4-2">
<path d="M 2.109375 -6 C 2.046875 -6.109375 2.015625 -6.109375 1.84375 -6.109375 L 0.34375 -6.109375 L 0.34375 -5.84375 L 0.59375 -5.84375 C 1.015625 -5.84375 1.25 -5.78125 1.25 -5.78125 L 1.25 -0.953125 C 1.25 -0.703125 1.25 -0.28125 0.34375 -0.28125 L 0.34375 0 C 0.828125 -0.015625 0.953125 -0.03125 1.390625 -0.03125 C 1.828125 -0.03125 1.953125 -0.015625 2.4375 0 L 2.4375 -0.28125 C 1.53125 -0.28125 1.53125 -0.703125 1.53125 -0.953125 L 1.53125 -5.5625 L 5.34375 -0.109375 C 5.40625 0 5.453125 0 5.5 0 C 5.640625 0 5.640625 -0.078125 5.640625 -0.234375 L 5.640625 -5.171875 C 5.640625 -5.40625 5.640625 -5.84375 6.546875 -5.84375 L 6.546875 -6.109375 C 6.0625 -6.09375 5.9375 -6.09375 5.5 -6.09375 C 5.0625 -6.09375 4.953125 -6.09375 4.453125 -6.109375 L 4.453125 -5.84375 C 5.359375 -5.84375 5.359375 -5.40625 5.359375 -5.171875 L 5.359375 -1.34375 Z M 2.109375 -6 "/>
</g>
<g id="glyph-4-3">
<path d="M 6.328125 -2.046875 C 6.453125 -2.046875 6.640625 -2.046875 6.640625 -2.234375 C 6.640625 -2.4375 6.46875 -2.4375 6.328125 -2.4375 L 3.765625 -2.4375 L 3.765625 -5 C 3.765625 -5.140625 3.765625 -5.3125 3.578125 -5.3125 C 3.390625 -5.3125 3.390625 -5.125 3.390625 -5 L 3.390625 -2.4375 L 0.828125 -2.4375 C 0.703125 -2.4375 0.515625 -2.4375 0.515625 -2.25 C 0.515625 -2.046875 0.6875 -2.046875 0.828125 -2.046875 L 3.390625 -2.046875 L 3.390625 0.515625 C 3.390625 0.65625 3.390625 0.828125 3.578125 0.828125 C 3.765625 0.828125 3.765625 0.640625 3.765625 0.515625 L 3.765625 -2.046875 Z M 6.328125 -2.046875 "/>
</g>
<g id="glyph-4-4">
<path d="M 2.71875 -5.71875 C 2.71875 -5.9375 2.71875 -5.96875 2.484375 -5.96875 C 1.9375 -5.390625 1.109375 -5.390625 0.828125 -5.390625 L 0.828125 -5.109375 C 1 -5.109375 1.546875 -5.109375 2.03125 -5.34375 L 2.03125 -0.71875 C 2.03125 -0.390625 2 -0.28125 1.171875 -0.28125 L 0.890625 -0.28125 L 0.890625 0 C 1.203125 -0.03125 2 -0.03125 2.375 -0.03125 C 2.734375 -0.03125 3.546875 -0.03125 3.875 0 L 3.875 -0.28125 L 3.578125 -0.28125 C 2.75 -0.28125 2.71875 -0.390625 2.71875 -0.71875 Z M 2.71875 -5.71875 "/>
</g>
<g id="glyph-5-0">
<path d="M 2.515625 -2.984375 L 2.515625 -2.734375 C 2.96875 -2.734375 3.03125 -2.6875 3.03125 -2.34375 L 3.03125 -1.15625 C 3.03125 -0.546875 2.640625 -0.125 2.109375 -0.125 C 1.46875 -0.125 1.453125 -0.421875 1.453125 -0.78125 L 1.453125 -3.0625 L 0.375 -2.984375 L 0.375 -2.734375 C 0.890625 -2.734375 0.890625 -2.71875 0.890625 -2.09375 L 0.890625 -1.0625 C 0.890625 -0.578125 0.890625 0.0625 2.0625 0.0625 C 2.21875 0.0625 2.71875 0.0625 3.046875 -0.515625 L 3.0625 -0.515625 L 3.0625 0.0625 L 4.109375 0 L 4.109375 -0.25 C 3.640625 -0.25 3.578125 -0.296875 3.578125 -0.640625 L 3.578125 -3.0625 Z M 2.515625 -2.984375 "/>
</g>
<g id="glyph-5-1">
<path d="M 1.9375 1.09375 C 1.484375 1.09375 1.40625 1.09375 1.40625 0.796875 L 1.40625 -0.328125 C 1.453125 -0.296875 1.765625 0.0625 2.359375 0.0625 C 3.28125 0.0625 4.0625 -0.625 4.0625 -1.5 C 4.0625 -2.359375 3.34375 -3.0625 2.46875 -3.0625 C 2.078125 -3.0625 1.671875 -2.921875 1.390625 -2.640625 L 1.390625 -3.0625 L 0.34375 -2.984375 L 0.34375 -2.734375 C 0.828125 -2.734375 0.859375 -2.703125 0.859375 -2.40625 L 0.859375 0.796875 C 0.859375 1.09375 0.796875 1.09375 0.34375 1.09375 L 0.34375 1.34375 C 0.359375 1.34375 0.84375 1.328125 1.140625 1.328125 C 1.390625 1.328125 1.875 1.34375 1.9375 1.34375 Z M 1.40625 -2.3125 C 1.625 -2.65625 2.015625 -2.84375 2.390625 -2.84375 C 2.96875 -2.84375 3.421875 -2.234375 3.421875 -1.5 C 3.421875 -0.703125 2.90625 -0.125 2.3125 -0.125 C 1.703125 -0.125 1.4375 -0.65625 1.40625 -0.703125 Z M 1.40625 -2.3125 "/>
</g>
<g id="glyph-5-2">
<path d="M 2.46875 -4.75 L 2.46875 -4.5 C 2.9375 -4.5 3 -4.453125 3 -4.109375 L 3 -2.671875 C 2.734375 -2.921875 2.40625 -3.0625 2.015625 -3.0625 C 1.09375 -3.0625 0.3125 -2.375 0.3125 -1.5 C 0.3125 -0.625 1.0625 0.0625 1.9375 0.0625 C 2.515625 0.0625 2.84375 -0.234375 2.96875 -0.359375 L 2.96875 0.0625 L 4.046875 0 L 4.046875 -0.25 C 3.578125 -0.25 3.515625 -0.296875 3.515625 -0.640625 L 3.515625 -4.828125 Z M 2.96875 -0.734375 C 2.78125 -0.40625 2.4375 -0.125 1.984375 -0.125 C 1.59375 -0.125 1.3125 -0.359375 1.171875 -0.5625 C 1.03125 -0.765625 0.953125 -1.046875 0.953125 -1.484375 C 0.953125 -1.640625 0.953125 -2.171875 1.234375 -2.5 C 1.515625 -2.8125 1.859375 -2.875 2.0625 -2.875 C 2.390625 -2.875 2.6875 -2.71875 2.890625 -2.46875 C 2.96875 -2.359375 2.96875 -2.34375 2.96875 -2.21875 Z M 2.96875 -0.734375 "/>
</g>
<g id="glyph-5-3">
<path d="M 3.09375 -1.859375 C 3.09375 -2.234375 3.09375 -2.5 2.78125 -2.75 C 2.5 -2.984375 2.15625 -3.09375 1.75 -3.09375 C 1.09375 -3.09375 0.625 -2.84375 0.625 -2.421875 C 0.625 -2.203125 0.78125 -2.09375 0.953125 -2.09375 C 1.140625 -2.09375 1.28125 -2.21875 1.28125 -2.40625 C 1.28125 -2.53125 1.234375 -2.671875 1.046875 -2.734375 C 1.296875 -2.90625 1.703125 -2.90625 1.734375 -2.90625 C 2.125 -2.90625 2.546875 -2.65625 2.546875 -2.0625 L 2.546875 -1.84375 C 2.171875 -1.828125 1.703125 -1.8125 1.203125 -1.625 C 0.578125 -1.390625 0.375 -1.015625 0.375 -0.703125 C 0.375 -0.109375 1.109375 0.0625 1.59375 0.0625 C 2.15625 0.0625 2.484375 -0.25 2.625 -0.515625 C 2.65625 -0.234375 2.84375 0.03125 3.15625 0.03125 C 3.171875 0.03125 3.859375 0.03125 3.859375 -0.625 L 3.859375 -1.015625 L 3.609375 -1.015625 L 3.609375 -0.625 C 3.609375 -0.5625 3.609375 -0.234375 3.359375 -0.234375 C 3.09375 -0.234375 3.09375 -0.5625 3.09375 -0.640625 Z M 2.546875 -0.984375 C 2.546875 -0.3125 1.96875 -0.125 1.65625 -0.125 C 1.296875 -0.125 0.96875 -0.359375 0.96875 -0.703125 C 0.96875 -1.078125 1.296875 -1.625 2.546875 -1.671875 Z M 2.546875 -0.984375 "/>
</g>
<g id="glyph-5-4">
<path d="M 1.390625 -2.75 L 2.484375 -2.75 L 2.484375 -3 L 1.390625 -3 L 1.390625 -4.28125 L 1.15625 -4.28125 C 1.15625 -3.65625 0.875 -2.96875 0.203125 -2.9375 L 0.203125 -2.75 L 0.84375 -2.75 L 0.84375 -0.875 C 0.84375 -0.09375 1.4375 0.0625 1.828125 0.0625 C 2.28125 0.0625 2.609375 -0.328125 2.609375 -0.875 L 2.609375 -1.265625 L 2.375 -1.265625 L 2.375 -0.890625 C 2.375 -0.40625 2.15625 -0.15625 1.875 -0.15625 C 1.390625 -0.15625 1.390625 -0.734375 1.390625 -0.859375 Z M 1.390625 -2.75 "/>
</g>
<g id="glyph-5-5">
<path d="M 3.0625 -1.578125 C 3.203125 -1.578125 3.25 -1.578125 3.25 -1.734375 C 3.25 -2.34375 2.90625 -3.09375 1.875 -3.09375 C 0.96875 -3.09375 0.265625 -2.375 0.265625 -1.515625 C 0.265625 -0.640625 1.046875 0.0625 1.96875 0.0625 C 2.90625 0.0625 3.25 -0.6875 3.25 -0.828125 C 3.25 -0.859375 3.234375 -0.9375 3.140625 -0.9375 C 3.046875 -0.9375 3.03125 -0.890625 3.015625 -0.828125 C 2.796875 -0.25 2.265625 -0.15625 2.015625 -0.15625 C 1.6875 -0.15625 1.375 -0.296875 1.171875 -0.5625 C 0.90625 -0.890625 0.90625 -1.3125 0.90625 -1.578125 Z M 0.90625 -1.765625 C 0.984375 -2.75 1.609375 -2.90625 1.875 -2.90625 C 2.734375 -2.90625 2.765625 -1.9375 2.765625 -1.765625 Z M 0.90625 -1.765625 "/>
</g>
<g id="glyph-6-0">
<path d="M 1.78125 -2.3125 C 1.796875 -2.3125 1.84375 -2.40625 1.84375 -2.484375 C 1.84375 -2.65625 1.671875 -2.78125 1.53125 -2.78125 C 1.328125 -2.78125 1.265625 -2.625 1.25 -2.546875 L 0.484375 -0.390625 C 0.46875 -0.34375 0.46875 -0.328125 0.46875 -0.3125 C 0.46875 -0.234375 0.671875 -0.1875 0.671875 -0.1875 C 0.71875 -0.1875 0.734375 -0.21875 0.765625 -0.265625 Z M 1.78125 -2.3125 "/>
</g>
</g>
</defs>
<g fill="rgb(69.999695%, 69.999695%, 69.999695%)" fill-opacity="1">
<use xlink:href="#glyph-0-0" x="46.093485" y="28.113551"/>
<use xlink:href="#glyph-0-1" x="50.211913" y="28.113551"/>
<use xlink:href="#glyph-0-2" x="53.15352" y="28.113551"/>
<use xlink:href="#glyph-0-3" x="61.97834" y="28.113551"/>
</g>
<g fill="rgb(69.999695%, 69.999695%, 69.999695%)" fill-opacity="1">
<use xlink:href="#glyph-1-0" x="70.366871" y="28.113551"/>
</g>
<path fill-rule="nonzero" fill="rgb(79.998779%, 79.998779%, 100%)" fill-opacity="1" stroke-width="0.79701" stroke-linecap="butt" stroke-linejoin="miter" stroke="rgb(0%, 0%, 69.999695%)" stroke-opacity="1" stroke-miterlimit="10" d="M 21.261445 42.520596 C 21.261445 46.434347 18.087392 49.6084 14.173641 49.6084 C 10.25989 49.6084 7.085837 46.434347 7.085837 42.520596 C 7.085837 38.606845 10.25989 35.432792 14.173641 35.432792 C 18.087392 35.432792 21.261445 38.606845 21.261445 42.520596 Z M 21.261445 42.520596 " transform="matrix(0.998083, 0, 0, -0.998083, 3.30665, 115.540661)"/>
<path fill="none" stroke-width="1.19553" stroke-linecap="butt" stroke-linejoin="miter" stroke="rgb(0%, 0%, 69.999695%)" stroke-opacity="1" stroke-miterlimit="10" d="M 20.670468 46.234746 L 30.290469 51.729653 " transform="matrix(0.998083, 0, 0, -0.998083, 3.30665, 115.540661)"/>
<path fill-rule="nonzero" fill="rgb(0%, 0%, 69.999695%)" fill-opacity="1" stroke-width="1.19553" stroke-linecap="butt" stroke-linejoin="miter" stroke="rgb(0%, 0%, 69.999695%)" stroke-opacity="1" stroke-miterlimit="10" d="M 5.38293 -0.000239644 L 1.928827 1.315309 L 3.093479 0.000691527 L 1.931786 -1.314452 Z M 5.38293 -0.000239644 " transform="matrix(0.866546, -0.495149, -0.495149, -0.866546, 31.116575, 65.294052)"/>
<g fill="rgb(0%, 0%, 69.999695%)" fill-opacity="1">
<use xlink:href="#glyph-2-0" x="33.327999" y="56.880309"/>
</g>
<g fill="rgb(0%, 0%, 69.999695%)" fill-opacity="1">
<use xlink:href="#glyph-3-0" x="37.305361" y="57.8744"/>
</g>
<g fill="rgb(0%, 0%, 69.999695%)" fill-opacity="1">
<use xlink:href="#glyph-2-1" x="13.257541" y="89.071491"/>
</g>
<g fill="rgb(0%, 0%, 69.999695%)" fill-opacity="1">
<use xlink:href="#glyph-3-0" x="17.766881" y="90.065582"/>
</g>
<path fill-rule="nonzero" fill="rgb(100%, 89.99939%, 79.998779%)" fill-opacity="1" stroke-width="0.79701" stroke-linecap="butt" stroke-linejoin="miter" stroke="rgb(69.999695%, 34.999084%, 0%)" stroke-opacity="1" stroke-miterlimit="10" d="M 97.794853 62.363315 C 97.794853 66.277067 94.624714 69.451119 90.710963 69.451119 C 86.797211 69.451119 83.623159 66.277067 83.623159 62.363315 C 83.623159 58.449564 86.797211 55.275512 90.710963 55.275512 C 94.624714 55.275512 97.794853 58.449564 97.794853 62.363315 Z M 97.794853 62.363315 " transform="matrix(0.998083, 0, 0, -0.998083, 3.30665, 115.540661)"/>
<path fill="none" stroke-width="1.19553" stroke-linecap="butt" stroke-linejoin="miter" stroke="rgb(69.999695%, 34.999084%, 0%)" stroke-opacity="1" stroke-miterlimit="10" d="M 85.916617 68.112616 L 79.282809 76.073186 " transform="matrix(0.998083, 0, 0, -0.998083, 3.30665, 115.540661)"/>
<path fill-rule="nonzero" fill="rgb(69.999695%, 34.999084%, 0%)" fill-opacity="1" stroke-width="1.19553" stroke-linecap="butt" stroke-linejoin="miter" stroke="rgb(69.999695%, 34.999084%, 0%)" stroke-opacity="1" stroke-miterlimit="10" d="M 5.38499 -0.00212564 L 1.930709 1.31231 L 3.094836 0.000866464 L 1.930726 -1.316605 Z M 5.38499 -0.00212564 " transform="matrix(-0.638923, -0.766718, -0.766718, 0.638923, 84.22412, 41.755125)"/>
<g fill="rgb(69.999695%, 34.999084%, 0%)" fill-opacity="1">
<use xlink:href="#glyph-2-0" x="75.766502" y="31.417207"/>
</g>
<g fill="rgb(69.999695%, 34.999084%, 0%)" fill-opacity="1">
<use xlink:href="#glyph-3-1" x="79.743864" y="32.411298"/>
</g>
<g fill="rgb(69.999695%, 34.999084%, 0%)" fill-opacity="1">
<use xlink:href="#glyph-2-1" x="89.646847" y="69.267521"/>
</g>
<g fill="rgb(69.999695%, 34.999084%, 0%)" fill-opacity="1">
<use xlink:href="#glyph-3-1" x="94.155189" y="70.261612"/>
</g>
<path fill-rule="nonzero" fill="rgb(79.998779%, 89.99939%, 89.99939%)" fill-opacity="1" stroke-width="0.79701" stroke-linecap="butt" stroke-linejoin="miter" stroke="rgb(0%, 34.999084%, 34.999084%)" stroke-opacity="1" stroke-miterlimit="10" d="M 58.109414 5.668713 C 58.109414 9.582465 54.939275 12.756517 51.025524 12.756517 C 47.111772 12.756517 43.93772 9.582465 43.93772 5.668713 C 43.93772 1.754962 47.111772 -1.41909 51.025524 -1.41909 C 54.939275 -1.41909 58.109414 1.754962 58.109414 5.668713 Z M 58.109414 5.668713 " transform="matrix(0.998083, 0, 0, -0.998083, 3.30665, 115.540661)"/>
<path fill="none" stroke-width="1.19553" stroke-linecap="butt" stroke-linejoin="miter" stroke="rgb(0%, 34.999084%, 34.999084%)" stroke-opacity="1" stroke-miterlimit="10" d="M 58.285533 3.852733 L 69.537568 1.042659 " transform="matrix(0.998083, 0, 0, -0.998083, 3.30665, 115.540661)"/>
<path fill-rule="nonzero" fill="rgb(0%, 34.999084%, 34.999084%)" fill-opacity="1" stroke-width="1.19553" stroke-linecap="butt" stroke-linejoin="miter" stroke="rgb(0%, 34.999084%, 34.999084%)" stroke-opacity="1" stroke-miterlimit="10" d="M 5.384271 -0.000341596 L 1.929019 1.314401 L 3.092785 -0.000319364 L 1.928994 -1.315966 Z M 5.384271 -0.000341596 " transform="matrix(0.968261, 0.242055, 0.242055, -0.968261, 70.005455, 113.825285)"/>
<g fill="rgb(0%, 34.999084%, 34.999084%)" fill-opacity="1">
<use xlink:href="#glyph-2-0" x="80.77688" y="116.541738"/>
</g>
<g fill="rgb(0%, 34.999084%, 34.999084%)" fill-opacity="1">
<use xlink:href="#glyph-3-2" x="84.754242" y="117.535829"/>
</g>
<g fill="rgb(0%, 34.999084%, 34.999084%)" fill-opacity="1">
<use xlink:href="#glyph-2-1" x="50.03791" y="125.85186"/>
</g>
<g fill="rgb(0%, 34.999084%, 34.999084%)" fill-opacity="1">
<use xlink:href="#glyph-3-2" x="54.546252" y="126.845951"/>
</g>
<path fill="none" stroke-width="0.79701" stroke-linecap="butt" stroke-linejoin="miter" stroke="rgb(87.5%, 87.5%, 87.5%)" stroke-opacity="1" stroke-miterlimit="10" d="M 21.417995 44.399197 L 83.462695 60.484715 " transform="matrix(0.998083, 0, 0, -0.998083, 3.30665, 115.540661)"/>
<path fill="none" stroke-width="0.79701" stroke-linecap="butt" stroke-linejoin="miter" stroke="rgb(87.5%, 87.5%, 87.5%)" stroke-opacity="1" stroke-miterlimit="10" d="M 19.465033 37.229204 L 45.730218 10.964019 " transform="matrix(0.998083, 0, 0, -0.998083, 3.30665, 115.540661)"/>
<path fill="none" stroke-width="0.79701" stroke-linecap="butt" stroke-linejoin="miter" stroke="rgb(87.5%, 87.5%, 87.5%)" stroke-opacity="1" stroke-miterlimit="10" d="M 86.417577 56.230467 L 55.314995 11.801562 " transform="matrix(0.998083, 0, 0, -0.998083, 3.30665, 115.540661)"/>
<path fill="none" stroke-width="1.19553" stroke-linecap="butt" stroke-linejoin="miter" stroke="rgb(82.499695%, 82.499695%, 82.499695%)" stroke-opacity="1" stroke-miterlimit="10" d="M 127.558932 36.84957 L 164.8335 36.84957 " transform="matrix(0.998083, 0, 0, -0.998083, 3.30665, 115.540661)"/>
<path fill-rule="nonzero" fill="rgb(82.499695%, 82.499695%, 82.499695%)" fill-opacity="1" stroke-width="1.19553" stroke-linecap="butt" stroke-linejoin="miter" stroke="rgb(82.499695%, 82.499695%, 82.499695%)" stroke-opacity="1" stroke-miterlimit="10" d="M 6.802548 -0.00134966 L 1.929928 1.845941 L 3.554135 -0.00134966 L 1.929928 -1.844727 Z M 6.802548 -0.00134966 " transform="matrix(0.998083, 0, 0, -0.998083, 164.573771, 78.760372)"/>
<g fill="rgb(75%, 75%, 75%)" fill-opacity="1">
<use xlink:href="#glyph-4-0" x="138.205597" y="74.849801"/>
<use xlink:href="#glyph-4-1" x="144.464678" y="74.849801"/>
<use xlink:href="#glyph-4-2" x="151.682219" y="74.849801"/>
<use xlink:href="#glyph-4-2" x="158.579379" y="74.849801"/>
</g>
<g fill="rgb(79.998779%, 79.998779%, 79.998779%)" fill-opacity="1">
<use xlink:href="#glyph-5-0" x="139.842454" y="87.505498"/>
<use xlink:href="#glyph-5-1" x="144.234487" y="87.505498"/>
</g>
<g fill="rgb(79.998779%, 79.998779%, 79.998779%)" fill-opacity="1">
<use xlink:href="#glyph-5-2" x="148.842294" y="87.505498"/>
<use xlink:href="#glyph-5-3" x="153.234328" y="87.505498"/>
<use xlink:href="#glyph-5-4" x="157.198295" y="87.505498"/>
<use xlink:href="#glyph-5-5" x="160.305433" y="87.505498"/>
</g>
<g fill="rgb(69.999695%, 69.999695%, 69.999695%)" fill-opacity="1">
<use xlink:href="#glyph-0-0" x="223.604602" y="27.699347"/>
<use xlink:href="#glyph-0-1" x="227.72303" y="27.699347"/>
<use xlink:href="#glyph-0-2" x="230.664637" y="27.699347"/>
<use xlink:href="#glyph-0-3" x="239.489457" y="27.699347"/>
</g>
<g fill="rgb(69.999695%, 69.999695%, 69.999695%)" fill-opacity="1">
<use xlink:href="#glyph-1-0" x="247.877988" y="27.699347"/>
</g>
<g fill="rgb(69.999695%, 69.999695%, 69.999695%)" fill-opacity="1">
<use xlink:href="#glyph-4-3" x="251.710628" y="27.699347"/>
</g>
<g fill="rgb(69.999695%, 69.999695%, 69.999695%)" fill-opacity="1">
<use xlink:href="#glyph-4-4" x="259.374735" y="27.699347"/>
</g>
<path fill-rule="nonzero" fill="rgb(79.998779%, 79.998779%, 100%)" fill-opacity="1" stroke-width="0.79701" stroke-linecap="butt" stroke-linejoin="miter" stroke="rgb(0%, 0%, 69.999695%)" stroke-opacity="1" stroke-miterlimit="10" d="M 219.688639 56.69229 C 219.688639 60.606041 216.514586 63.780093 212.600835 63.780093 C 208.687083 63.780093 205.513031 60.606041 205.513031 56.69229 C 205.513031 52.778538 208.687083 49.6084 212.600835 49.6084 C 216.514586 49.6084 219.688639 52.778538 219.688639 56.69229 Z M 219.688639 56.69229 " transform="matrix(0.998083, 0, 0, -0.998083, 3.30665, 115.540661)"/>
<path fill-rule="nonzero" fill="rgb(94.999695%, 94.999695%, 100%)" fill-opacity="1" stroke-width="0.3985" stroke-linecap="butt" stroke-linejoin="miter" stroke="rgb(84.999084%, 84.999084%, 100%)" stroke-opacity="1" stroke-dasharray="2.98883 2.98883" stroke-miterlimit="10" d="M 191.341337 42.520596 C 191.341337 46.434347 188.167285 49.6084 184.253534 49.6084 C 180.339782 49.6084 177.16573 46.434347 177.16573 42.520596 C 177.16573 38.606845 180.339782 35.432792 184.253534 35.432792 C 188.167285 35.432792 191.341337 38.606845 191.341337 42.520596 Z M 191.341337 42.520596 " transform="matrix(0.998083, 0, 0, -0.998083, 3.30665, 115.540661)"/>
<path fill="none" stroke-width="0.79701" stroke-linecap="butt" stroke-linejoin="miter" stroke="rgb(69.999695%, 69.999695%, 100%)" stroke-opacity="1" stroke-dasharray="2.98883 2.98883" stroke-miterlimit="10" d="M 184.253534 42.520596 L 201.059182 52.124942 " transform="matrix(0.998083, 0, 0, -0.998083, 3.30665, 115.540661)"/>
<path fill-rule="nonzero" fill="rgb(69.999695%, 69.999695%, 100%)" fill-opacity="1" stroke-width="0.79701" stroke-linecap="butt" stroke-linejoin="miter" stroke="rgb(69.999695%, 69.999695%, 100%)" stroke-opacity="1" stroke-miterlimit="10" d="M 4.532741 0.00031749 L 1.287879 1.232419 L 2.369503 0.00128037 L 1.285947 -1.232293 Z M 4.532741 0.00031749 " transform="matrix(0.866536, -0.495159, -0.495159, -0.866536, 202.099718, 64.592359)"/>
<path fill="none" stroke-width="1.19553" stroke-linecap="butt" stroke-linejoin="miter" stroke="rgb(0%, 0%, 69.999695%)" stroke-opacity="1" stroke-miterlimit="10" d="M 216.952926 62.786001 L 224.279469 73.043943 " transform="matrix(0.998083, 0, 0, -0.998083, 3.30665, 115.540661)"/>
<path fill-rule="nonzero" fill="rgb(0%, 0%, 69.999695%)" fill-opacity="1" stroke-width="1.19553" stroke-linecap="butt" stroke-linejoin="miter" stroke="rgb(0%, 0%, 69.999695%)" stroke-opacity="1" stroke-miterlimit="10" d="M 5.383779 -0.00188596 L 1.930854 1.317187 L 3.094253 -0.00185402 L 1.929907 -1.314493 Z M 5.383779 -0.00188596 " transform="matrix(0.580076, -0.81213, -0.81213, -0.580076, 225.535623, 44.906393)"/>
<g fill="rgb(0%, 0%, 69.999695%)" fill-opacity="1">
<use xlink:href="#glyph-2-0" x="225.71455" y="33.252682"/>
</g>
<g fill="rgb(0%, 0%, 69.999695%)" fill-opacity="1">
<use xlink:href="#glyph-6-0" x="229.941433" y="30.251446"/>
</g>
<g fill="rgb(0%, 0%, 69.999695%)" fill-opacity="1">
<use xlink:href="#glyph-3-0" x="229.691912" y="35.240864"/>
</g>
<g fill="rgb(0%, 0%, 69.999695%)" fill-opacity="1">
<use xlink:href="#glyph-2-1" x="211.302226" y="77.691345"/>
</g>
<g fill="rgb(0%, 0%, 69.999695%)" fill-opacity="1">
<use xlink:href="#glyph-6-0" x="215.811567" y="74.691106"/>
</g>
<g fill="rgb(0%, 0%, 69.999695%)" fill-opacity="1">
<use xlink:href="#glyph-3-0" x="215.811567" y="79.680525"/>
</g>
<path fill-rule="nonzero" fill="rgb(100%, 89.99939%, 79.998779%)" fill-opacity="1" stroke-width="0.79701" stroke-linecap="butt" stroke-linejoin="miter" stroke="rgb(69.999695%, 34.999084%, 0%)" stroke-opacity="1" stroke-miterlimit="10" d="M 256.540521 76.535009 C 256.540521 80.44876 253.366469 83.622813 249.452718 83.622813 C 245.538966 83.622813 242.364914 80.44876 242.364914 76.535009 C 242.364914 72.621258 245.538966 69.451119 249.452718 69.451119 C 253.366469 69.451119 256.540521 72.621258 256.540521 76.535009 Z M 256.540521 76.535009 " transform="matrix(0.998083, 0, 0, -0.998083, 3.30665, 115.540661)"/>
<path fill-rule="nonzero" fill="rgb(100%, 97.499084%, 94.999695%)" fill-opacity="1" stroke-width="0.3985" stroke-linecap="butt" stroke-linejoin="miter" stroke="rgb(100%, 92.498779%, 84.999084%)" stroke-opacity="1" stroke-dasharray="2.98883 2.98883" stroke-miterlimit="10" d="M 267.878659 62.363315 C 267.878659 66.277067 264.704607 69.451119 260.790855 69.451119 C 256.877104 69.451119 253.703052 66.277067 253.703052 62.363315 C 253.703052 58.449564 256.877104 55.275512 260.790855 55.275512 C 264.704607 55.275512 267.878659 58.449564 267.878659 62.363315 Z M 267.878659 62.363315 " transform="matrix(0.998083, 0, 0, -0.998083, 3.30665, 115.540661)"/>
<path fill="none" stroke-width="0.79701" stroke-linecap="butt" stroke-linejoin="miter" stroke="rgb(100%, 84.999084%, 69.999695%)" stroke-opacity="1" stroke-dasharray="2.98883 2.98883" stroke-miterlimit="10" d="M 260.790855 62.363315 L 248.857827 76.683732 " transform="matrix(0.998083, 0, 0, -0.998083, 3.30665, 115.540661)"/>
<path fill-rule="nonzero" fill="rgb(100%, 84.999084%, 69.999695%)" fill-opacity="1" stroke-width="0.79701" stroke-linecap="butt" stroke-linejoin="miter" stroke="rgb(100%, 84.999084%, 69.999695%)" stroke-opacity="1" stroke-miterlimit="10" d="M 4.53505 0.000106465 L 1.285731 1.230354 L 2.370179 0.000593733 L 1.28725 -1.231686 Z M 4.53505 0.000106465 " transform="matrix(-0.638923, -0.766718, -0.766718, 0.638923, 253.073411, 40.668441)"/>
<path fill="none" stroke-width="1.19553" stroke-linecap="butt" stroke-linejoin="miter" stroke="rgb(69.999695%, 34.999084%, 0%)" stroke-opacity="1" stroke-miterlimit="10" d="M 245.601586 82.953561 L 243.155492 87.03169 " transform="matrix(0.998083, 0, 0, -0.998083, 3.30665, 115.540661)"/>
<path fill-rule="nonzero" fill="rgb(69.999695%, 34.999084%, 0%)" fill-opacity="1" stroke-width="1.19553" stroke-linecap="butt" stroke-linejoin="miter" stroke="rgb(69.999695%, 34.999084%, 0%)" stroke-opacity="1" stroke-miterlimit="10" d="M 5.384444 -0.00135615 L 1.929052 1.314278 L 3.093589 -0.00064958 L 1.930354 -1.315541 Z M 5.384444 -0.00135615 " transform="matrix(-0.513514, -0.855827, -0.855827, 0.513514, 247.431795, 31.069784)"/>
<g fill="rgb(69.999695%, 34.999084%, 0%)" fill-opacity="1">
<use xlink:href="#glyph-2-0" x="239.860385" y="19.106847"/>
</g>
<g fill="rgb(69.999695%, 34.999084%, 0%)" fill-opacity="1">
<use xlink:href="#glyph-6-0" x="244.087268" y="16.105611"/>
</g>
<g fill="rgb(69.999695%, 34.999084%, 0%)" fill-opacity="1">
<use xlink:href="#glyph-3-1" x="243.837747" y="21.095029"/>
</g>
<g fill="rgb(69.999695%, 34.999084%, 0%)" fill-opacity="1">
<use xlink:href="#glyph-2-1" x="265.249629" y="41.03873"/>
</g>
<g fill="rgb(69.999695%, 34.999084%, 0%)" fill-opacity="1">
<use xlink:href="#glyph-6-0" x="269.758969" y="38.038492"/>
</g>
<g fill="rgb(69.999695%, 34.999084%, 0%)" fill-opacity="1">
<use xlink:href="#glyph-3-1" x="269.758969" y="43.02791"/>
</g>
<path fill-rule="nonzero" fill="rgb(79.998779%, 89.99939%, 89.99939%)" fill-opacity="1" stroke-width="0.79701" stroke-linecap="butt" stroke-linejoin="miter" stroke="rgb(0%, 34.999084%, 34.999084%)" stroke-opacity="1" stroke-miterlimit="10" d="M 245.19847 2.835157 C 245.19847 6.748909 242.028331 9.922961 238.11458 9.922961 C 234.200829 9.922961 231.026776 6.748909 231.026776 2.835157 C 231.026776 -1.078594 234.200829 -4.252646 238.11458 -4.252646 C 242.028331 -4.252646 245.19847 -1.078594 245.19847 2.835157 Z M 245.19847 2.835157 " transform="matrix(0.998083, 0, 0, -0.998083, 3.30665, 115.540661)"/>
<path fill-rule="nonzero" fill="rgb(94.999695%, 97.499084%, 97.499084%)" fill-opacity="1" stroke-width="0.3985" stroke-linecap="butt" stroke-linejoin="miter" stroke="rgb(84.999084%, 92.498779%, 92.498779%)" stroke-opacity="1" stroke-dasharray="2.98883 2.98883" stroke-miterlimit="10" d="M 228.19322 5.668713 C 228.19322 9.582465 225.019168 12.756517 221.105417 12.756517 C 217.191665 12.756517 214.017613 9.582465 214.017613 5.668713 C 214.017613 1.754962 217.191665 -1.41909 221.105417 -1.41909 C 225.019168 -1.41909 228.19322 1.754962 228.19322 5.668713 Z M 228.19322 5.668713 " transform="matrix(0.998083, 0, 0, -0.998083, 3.30665, 115.540661)"/>
<path fill="none" stroke-width="0.79701" stroke-linecap="butt" stroke-linejoin="miter" stroke="rgb(69.999695%, 84.999084%, 84.999084%)" stroke-opacity="1" stroke-dasharray="2.98883 2.98883" stroke-miterlimit="10" d="M 221.105417 5.668713 L 240.388469 0.846972 " transform="matrix(0.998083, 0, 0, -0.998083, 3.30665, 115.540661)"/>
<path fill-rule="nonzero" fill="rgb(69.999695%, 84.999084%, 84.999084%)" fill-opacity="1" stroke-width="0.79701" stroke-linecap="butt" stroke-linejoin="miter" stroke="rgb(69.999695%, 84.999084%, 84.999084%)" stroke-opacity="1" stroke-miterlimit="10" d="M 4.534573 0.000441079 L 1.286334 1.22981 L 2.36842 -0.000434603 L 1.288149 -1.230606 Z M 4.534573 0.000441079 " transform="matrix(0.968281, 0.242035, 0.242035, -0.968281, 241.132592, 114.168526)"/>
<path fill="none" stroke-width="1.19553" stroke-linecap="butt" stroke-linejoin="miter" stroke="rgb(0%, 34.999084%, 34.999084%)" stroke-opacity="1" stroke-miterlimit="10" d="M 244.341358 -1.317333 L 251.550488 -6.12342 " transform="matrix(0.998083, 0, 0, -0.998083, 3.30665, 115.540661)"/>
<path fill-rule="nonzero" fill="rgb(0%, 34.999084%, 34.999084%)" fill-opacity="1" stroke-width="1.19553" stroke-linecap="butt" stroke-linejoin="miter" stroke="rgb(0%, 34.999084%, 34.999084%)" stroke-opacity="1" stroke-miterlimit="10" d="M 5.382946 -0.00123945 L 1.932066 1.315567 L 3.094647 0.00205522 L 1.930936 -1.314674 Z M 5.382946 -0.00123945 " transform="matrix(0.830425, 0.553597, 0.553597, -0.830425, 252.053989, 120.104926)"/>
<g fill="rgb(0%, 34.999084%, 34.999084%)" fill-opacity="1">
<use xlink:href="#glyph-2-0" x="261.846164" y="125.914739"/>
</g>
<g fill="rgb(0%, 34.999084%, 34.999084%)" fill-opacity="1">
<use xlink:href="#glyph-6-0" x="266.074045" y="122.9145"/>
</g>
<g fill="rgb(0%, 34.999084%, 34.999084%)" fill-opacity="1">
<use xlink:href="#glyph-3-2" x="265.823526" y="127.903919"/>
</g>
<g fill="rgb(0%, 34.999084%, 34.999084%)" fill-opacity="1">
<use xlink:href="#glyph-2-1" x="236.765328" y="131.446117"/>
</g>
<g fill="rgb(0%, 34.999084%, 34.999084%)" fill-opacity="1">
<use xlink:href="#glyph-6-0" x="241.274669" y="128.445878"/>
</g>
<g fill="rgb(0%, 34.999084%, 34.999084%)" fill-opacity="1">
<use xlink:href="#glyph-3-2" x="241.274669" y="133.435297"/>
</g>
<path fill="none" stroke-width="0.79701" stroke-linecap="butt" stroke-linejoin="miter" stroke="rgb(87.5%, 87.5%, 87.5%)" stroke-opacity="1" stroke-miterlimit="10" d="M 219.191592 60.242062 L 242.86196 72.98915 " transform="matrix(0.998083, 0, 0, -0.998083, 3.30665, 115.540661)"/>
<path fill="none" stroke-width="0.79701" stroke-linecap="butt" stroke-linejoin="miter" stroke="rgb(87.5%, 87.5%, 87.5%)" stroke-opacity="1" stroke-miterlimit="10" d="M 215.806197 49.929327 L 234.909218 9.59812 " transform="matrix(0.998083, 0, 0, -0.998083, 3.30665, 115.540661)"/>
<path fill="none" stroke-width="0.79701" stroke-linecap="butt" stroke-linejoin="miter" stroke="rgb(87.5%, 87.5%, 87.5%)" stroke-opacity="1" stroke-miterlimit="10" d="M 248.313816 69.138019 L 239.249568 10.232147 " transform="matrix(0.998083, 0, 0, -0.998083, 3.30665, 115.540661)"/>
</svg>
